

<svg xmlns="http://www.w3.org/2000/svg">
  <symbol width="41" height="41" viewBox="0 0 41 41" fill="none" id="exit-logo">
    <path fill-rule="evenodd" clip-rule="evenodd" d="M40.1361 3.86233C40.9538 2.9792 40.9538 1.54548 40.1361 0.662347C39.0458 -0.220782 37.6829 -0.220782 36.8652 0.662347L20.2384 17.1611L3.88413 0.662347C2.79385 -0.220782 1.431 -0.220782 0.613284 0.662347C-0.204428 1.54548 -0.204428 2.9792 0.613284 3.86233L17.2401 20.361L0.613284 36.8625C-0.204428 37.7456 -0.204428 39.1766 0.613284 40.0597C1.431 40.9456 2.79385 40.9456 3.88413 40.0597L20.2384 23.561L36.8652 40.0597C37.6829 40.9456 39.0458 40.9456 40.1361 40.0597C40.9538 39.1766 40.9538 37.7456 40.1361 36.8625L23.5092 20.361L40.1361 3.86233Z" fill="white"/>
  </symbol>

  <symbol width="43" height="43" viewBox="0 0 43 43" fill="none" id="menu-logo">
    <path d="M5.375 32.25H37.625V28.6667H5.375V32.25ZM5.375 23.2917H37.625V19.7083H5.375V23.2917ZM5.375 10.75V14.3333H37.625V10.75H5.375Z" fill="white" fill-opacity="0.87"/>
  </symbol>

  <symbol width="24" height="24" viewBox="0 0 24 24" fill="none" id="back-logo">
    <path d="M14.7071 5.29289C15.0976 5.68342 15.0976 6.31658 14.7071 6.70711L9.41421 12L14.7071 17.2929C15.0976 17.6834 15.0976 18.3166 14.7071 18.7071C14.3166 19.0976 13.6834 19.0976 13.2929 18.7071L7.29289 12.7071C6.90237 12.3166 6.90237 11.6834 7.29289 11.2929L13.2929 5.29289C13.6834 4.90237 14.3166 4.90237 14.7071 5.29289Z" fill="white"/>
  </symbol>

  <symbol width="24" height="24" viewBox="0 0 24 24" fill="none" id="next-logo">
    <path d="M9.29289 5.29289C9.68342 4.90237 10.3166 4.90237 10.7071 5.29289L16.7071 11.2929C17.0976 11.6834 17.0976 12.3166 16.7071 12.7071L10.7071 18.7071C10.3166 19.0976 9.68342 19.0976 9.29289 18.7071C8.90237 18.3166 8.90237 17.6834 9.29289 17.2929L14.5858 12L9.29289 6.70711C8.90237 6.31658 8.90237 5.68342 9.29289 5.29289Z" fill="white"/>
  </symbol>


  <symbol width="16" height="16" viewBox="0 0 16 16" fill="none" id="trash-logo">
  <g clip-path="url(#clip0_6_4431)">
  <path d="M2.52199 5.00001H1.99999C1.92812 5.00008 1.85711 5.01565 1.79179 5.04565C1.72648 5.07565 1.6684 5.11938 1.62151 5.17386C1.57463 5.22833 1.54004 5.29228 1.5201 5.36133C1.50017 5.43039 1.49536 5.50293 1.50599 5.57401L2.87799 14.723C2.93136 15.078 3.11025 15.402 3.38217 15.6364C3.6541 15.8707 4.00104 15.9997 4.35999 16H11.638C11.9971 15.9999 12.3443 15.871 12.6164 15.6367C12.8886 15.4023 13.0676 15.0781 13.121 14.723L14.494 5.57401C14.5046 5.50293 14.4998 5.43039 14.4799 5.36133C14.4599 5.29228 14.4254 5.22833 14.3785 5.17386C14.3316 5.11938 14.2735 5.07565 14.2082 5.04565C14.1429 5.01565 14.0719 5.00008 14 5.00001H13.478C13.3553 3.63189 12.725 2.35922 11.7113 1.43233C10.6975 0.50545 9.37361 -0.00854492 7.99999 -0.00854492C6.62638 -0.00854492 5.30248 0.50545 4.28872 1.43233C3.27497 2.35922 2.64473 3.63189 2.52199 5.00001V5.00001ZM3.52699 5.00001C3.64924 3.89932 4.17308 2.88235 4.99827 2.14374C5.82346 1.40513 6.89203 0.996745 7.99949 0.996745C9.10696 0.996745 10.1755 1.40513 11.0007 2.14374C11.8259 2.88235 12.3497 3.89932 12.472 5.00001H3.52699V5.00001Z" fill="white"/>
  </g>
  <defs>
  <clipPath id="clip0_6_4431">
  <rect width="16" height="16" fill="white"/>
  </clipPath>
  </defs>
  </symbol>


  <symbol width="16" height="16" viewBox="0 0 16 16" fill="none" id="redact-logo">
  <g clip-path="url(#clip0_6_4434)">
  <path d="M15.825 0.120029C15.9071 0.190091 15.9643 0.284828 15.9881 0.390087C16.0119 0.495346 16.001 0.605477 15.957 0.704029C14.427 4.13403 11.214 8.87403 8.86202 11.344C8.20278 12.035 7.38973 12.5606 6.48902 12.878C6.47102 13.105 6.42902 13.416 6.32902 13.746C6.12802 14.405 5.66202 15.225 4.62102 15.486C3.61285 15.7261 2.56804 15.7709 1.54302 15.618C1.35242 15.5879 1.1645 15.5428 0.98102 15.483C0.81127 15.4314 0.653057 15.3475 0.51502 15.236C0.423991 15.1586 0.353848 15.0596 0.31102 14.948C0.257938 14.8049 0.259362 14.6472 0.31502 14.505C0.41002 14.26 0.63102 14.125 0.77602 14.053C1.17002 13.856 1.40102 13.6 1.64302 13.227C1.73802 13.083 1.82702 12.93 1.93002 12.755L2.04702 12.557C2.19802 12.302 2.37302 12.017 2.59302 11.709C3.12102 10.97 3.79402 10.784 4.33902 10.813C4.46502 10.82 4.58202 10.838 4.68702 10.861C4.74902 10.689 4.82902 10.481 4.92502 10.253C5.18602 9.63403 5.58302 8.83403 6.11202 8.18403C8.28802 5.51403 12.292 1.97803 15.229 0.0800287C15.3194 0.0216683 15.4263 -0.0059617 15.5336 0.00124472C15.641 0.00845115 15.7432 0.0501094 15.825 0.120029V0.120029Z" fill="white"/>
  </g>
  <defs>
  <clipPath id="clip0_6_4434">
  <rect width="16" height="16" fill="white"/>
  </clipPath>
  </defs>

  </symbol>


</svg>




